<svg width="624" height="624" viewBox="0 0 624 624" fill="none" xmlns="http://www.w3.org/2000/svg">
<circle cx="500" cy="276" r="124" fill="#1F7EFE" fill-opacity="0.8"/>
<path d="M200 245.5C200 165.143 265.143 100 345.5 100H354.5C434.857 100 500 165.143 500 245.5V400H345.5C265.143 400 200 334.857 200 254.5V245.5Z" fill="#1F7EFE" fill-opacity="0.8"/>
<path d="M0 200C0 89.5431 89.5431 0 200 0V0C310.457 0 400 89.5431 400 200V400H200C89.5431 400 0 310.457 0 200V200Z" fill="#0360E4" fill-opacity="0.8"/>
<path d="M141.98 499.434V518.379C141.98 527.884 140.711 536.543 138.172 544.355C135.698 552.168 132.085 558.874 127.332 564.473C122.579 570.072 116.883 574.401 110.242 577.461C103.602 580.456 96.1146 581.953 87.7812 581.953C79.6432 581.953 72.2214 580.456 65.5156 577.461C58.8099 574.401 53.0482 570.072 48.2305 564.473C43.4779 558.874 39.7995 552.168 37.1953 544.355C34.6562 536.543 33.3867 527.884 33.3867 518.379V499.434C33.3867 489.863 34.6562 481.204 37.1953 473.457C39.7995 465.645 43.4779 458.939 48.2305 453.34C52.9831 447.741 58.6797 443.444 65.3203 440.449C72.026 437.389 79.4479 435.859 87.5859 435.859C95.9193 435.859 103.406 437.389 110.047 440.449C116.688 443.444 122.384 447.741 127.137 453.34C131.954 458.939 135.633 465.645 138.172 473.457C140.711 481.204 141.98 489.863 141.98 499.434ZM134.168 518.379V499.238C134.168 490.905 133.126 483.32 131.043 476.484C128.96 469.583 125.9 463.659 121.863 458.711C117.892 453.763 113.042 449.954 107.312 447.285C101.583 444.551 95.0078 443.184 87.5859 443.184C80.3594 443.184 73.8815 444.551 68.1523 447.285C62.4232 449.954 57.5729 453.763 53.6016 458.711C49.6302 463.659 46.6029 469.583 44.5195 476.484C42.4362 483.32 41.3945 490.905 41.3945 499.238V518.379C41.3945 526.777 42.4362 534.427 44.5195 541.328C46.668 548.229 49.7279 554.154 53.6992 559.102C57.6706 564.049 62.5208 567.891 68.25 570.625C74.0443 573.294 80.5547 574.629 87.7812 574.629C95.2031 574.629 101.779 573.294 107.508 570.625C113.237 567.891 118.087 564.049 122.059 559.102C126.03 554.154 129.025 548.229 131.043 541.328C133.126 534.427 134.168 526.777 134.168 518.379ZM178.797 496.895V580H171.082V474.336H178.699L178.797 496.895ZM177.332 519.062L173.523 514.57C174.109 508.971 175.477 503.633 177.625 498.555C179.839 493.477 182.736 488.984 186.316 485.078C189.962 481.172 194.194 478.079 199.012 475.801C203.895 473.522 209.266 472.383 215.125 472.383C220.398 472.383 225.118 473.132 229.285 474.629C233.452 476.061 236.967 478.34 239.832 481.465C242.762 484.59 244.975 488.626 246.473 493.574C247.97 498.457 248.719 504.414 248.719 511.445V580H241.004V511.445C241.004 503.112 239.865 496.667 237.586 492.109C235.307 487.487 232.117 484.232 228.016 482.344C223.979 480.456 219.259 479.512 213.855 479.512C207.605 479.512 202.202 480.911 197.645 483.711C193.152 486.445 189.441 489.928 186.512 494.16C183.582 498.327 181.336 502.656 179.773 507.148C178.276 511.641 177.462 515.612 177.332 519.062ZM320.008 581.953C313.367 581.953 307.215 580.684 301.551 578.145C295.887 575.54 290.939 571.927 286.707 567.305C282.475 562.617 279.155 557.083 276.746 550.703C274.402 544.323 273.23 537.324 273.23 529.707V525.41C273.23 517.533 274.402 510.371 276.746 503.926C279.155 497.415 282.41 491.816 286.512 487.129C290.613 482.376 295.333 478.73 300.672 476.191C306.076 473.652 311.837 472.383 317.957 472.383C324.142 472.383 329.741 473.522 334.754 475.801C339.767 478.079 344.064 481.27 347.645 485.371C351.225 489.473 353.96 494.355 355.848 500.02C357.736 505.684 358.68 511.934 358.68 518.77V525.312H278.113V518.184H350.965V516.914C350.9 510.273 349.533 504.121 346.863 498.457C344.259 492.793 340.516 488.236 335.633 484.785C330.75 481.27 324.858 479.512 317.957 479.512C312.423 479.512 307.378 480.684 302.82 483.027C298.328 485.371 294.454 488.626 291.199 492.793C287.944 496.895 285.438 501.745 283.68 507.344C281.922 512.878 281.043 518.9 281.043 525.41V529.707C281.043 535.957 282.02 541.816 283.973 547.285C285.926 552.754 288.66 557.572 292.176 561.738C295.691 565.84 299.826 569.062 304.578 571.406C309.331 573.75 314.539 574.922 320.203 574.922C326.323 574.922 331.922 573.848 337 571.699C342.078 569.551 346.701 565.775 350.867 560.371L355.945 564.18C353.602 567.565 350.77 570.592 347.449 573.262C344.129 575.931 340.19 578.047 335.633 579.609C331.141 581.172 325.932 581.953 320.008 581.953ZM468.836 545.527C468.836 541.296 468.12 537.52 466.688 534.199C465.255 530.814 462.879 527.819 459.559 525.215C456.303 522.546 452.007 520.072 446.668 517.793C441.329 515.514 434.754 513.301 426.941 511.152C419.78 509.199 413.302 507.083 407.508 504.805C401.779 502.461 396.863 499.792 392.762 496.797C388.725 493.802 385.633 490.254 383.484 486.152C381.336 481.986 380.262 477.07 380.262 471.406C380.262 465.938 381.434 461.022 383.777 456.66C386.121 452.298 389.409 448.587 393.641 445.527C397.938 442.402 402.951 440.026 408.68 438.398C414.474 436.706 420.789 435.859 427.625 435.859C437.195 435.859 445.561 437.682 452.723 441.328C459.884 444.909 465.483 449.889 469.52 456.27C473.556 462.585 475.574 469.844 475.574 478.047H467.664C467.664 471.341 466.004 465.352 462.684 460.078C459.428 454.805 454.806 450.671 448.816 447.676C442.892 444.616 435.828 443.086 427.625 443.086C419.161 443.086 411.967 444.388 406.043 446.992C400.184 449.596 395.724 453.047 392.664 457.344C389.669 461.576 388.172 466.198 388.172 471.211C388.172 474.792 388.823 478.145 390.125 481.27C391.492 484.395 393.706 487.259 396.766 489.863C399.891 492.467 404.09 494.941 409.363 497.285C414.702 499.564 421.342 501.777 429.285 503.926C436.577 505.814 443.12 507.962 448.914 510.371C454.773 512.715 459.786 515.482 463.953 518.672C468.12 521.862 471.31 525.638 473.523 530C475.737 534.362 476.844 539.473 476.844 545.332C476.844 551.126 475.607 556.302 473.133 560.859C470.659 565.352 467.208 569.193 462.781 572.383C458.419 575.508 453.276 577.884 447.352 579.512C441.492 581.139 435.177 581.953 428.406 581.953C422.221 581.953 416.004 581.204 409.754 579.707C403.569 578.21 397.905 575.801 392.762 572.48C387.618 569.16 383.484 564.798 380.359 559.395C377.234 553.991 375.672 547.415 375.672 539.668H383.582C383.582 546.309 384.949 551.908 387.684 556.465C390.418 560.957 393.999 564.538 398.426 567.207C402.853 569.876 407.671 571.797 412.879 572.969C418.152 574.141 423.328 574.727 428.406 574.727C436.349 574.727 443.348 573.522 449.402 571.113C455.522 568.639 460.275 565.221 463.66 560.859C467.111 556.432 468.836 551.322 468.836 545.527ZM587.195 545.527C587.195 541.296 586.479 537.52 585.047 534.199C583.615 530.814 581.238 527.819 577.918 525.215C574.663 522.546 570.366 520.072 565.027 517.793C559.689 515.514 553.113 513.301 545.301 511.152C538.139 509.199 531.661 507.083 525.867 504.805C520.138 502.461 515.223 499.792 511.121 496.797C507.085 493.802 503.992 490.254 501.844 486.152C499.695 481.986 498.621 477.07 498.621 471.406C498.621 465.938 499.793 461.022 502.137 456.66C504.48 452.298 507.768 448.587 512 445.527C516.297 442.402 521.31 440.026 527.039 438.398C532.833 436.706 539.148 435.859 545.984 435.859C555.555 435.859 563.921 437.682 571.082 441.328C578.243 444.909 583.842 449.889 587.879 456.27C591.915 462.585 593.934 469.844 593.934 478.047H586.023C586.023 471.341 584.363 465.352 581.043 460.078C577.788 454.805 573.165 450.671 567.176 447.676C561.251 444.616 554.188 443.086 545.984 443.086C537.521 443.086 530.327 444.388 524.402 446.992C518.543 449.596 514.083 453.047 511.023 457.344C508.029 461.576 506.531 466.198 506.531 471.211C506.531 474.792 507.182 478.145 508.484 481.27C509.852 484.395 512.065 487.259 515.125 489.863C518.25 492.467 522.449 494.941 527.723 497.285C533.061 499.564 539.702 501.777 547.645 503.926C554.936 505.814 561.479 507.962 567.273 510.371C573.133 512.715 578.146 515.482 582.312 518.672C586.479 521.862 589.669 525.638 591.883 530C594.096 534.362 595.203 539.473 595.203 545.332C595.203 551.126 593.966 556.302 591.492 560.859C589.018 565.352 585.568 569.193 581.141 572.383C576.779 575.508 571.635 577.884 565.711 579.512C559.852 581.139 553.536 581.953 546.766 581.953C540.581 581.953 534.363 581.204 528.113 579.707C521.928 578.21 516.264 575.801 511.121 572.48C505.978 569.16 501.844 564.798 498.719 559.395C495.594 553.991 494.031 547.415 494.031 539.668H501.941C501.941 546.309 503.309 551.908 506.043 556.465C508.777 560.957 512.358 564.538 516.785 567.207C521.212 569.876 526.03 571.797 531.238 572.969C536.512 574.141 541.688 574.727 546.766 574.727C554.708 574.727 561.707 573.522 567.762 571.113C573.882 568.639 578.634 565.221 582.02 560.859C585.47 556.432 587.195 551.322 587.195 545.527Z" fill="#161A1C"/>
</svg>
