<svg width="24" height="24" viewBox="0 0 24 24" fill="none" xmlns="http://www.w3.org/2000/svg">
<rect width="24" height="24" fill="white"/>
<path d="M8.82004 6.16176V6.83824C8.82004 7.64216 8.74044 8.36275 8.58125 9C8.42205 9.63726 8.19297 10.1789 7.894 10.625C7.59503 11.0711 7.23588 11.4118 6.81654 11.6471C6.40109 11.8824 5.93516 12 5.41875 12C4.91788 12 4.45778 11.8824 4.03844 11.6471C3.62299 11.4118 3.26189 11.0711 2.95515 10.625C2.6523 10.1789 2.41739 9.63726 2.25044 9C2.08348 8.36275 2 7.64216 2 6.83824V6.16176C2 5.35784 2.08154 4.63971 2.24461 4.00735C2.41157 3.3701 2.64648 2.82843 2.94933 2.38235C3.25218 1.93137 3.61134 1.58824 4.02679 1.35294C4.44613 1.11765 4.90623 1 5.40711 1C5.92351 1 6.38944 1.11765 6.80489 1.35294C7.22423 1.58824 7.58338 1.93137 7.88235 2.38235C8.18521 2.82843 8.41623 3.3701 8.57542 4.00735C8.7385 4.63971 8.82004 5.35784 8.82004 6.16176ZM7.70763 6.83824V6.14706C7.70763 5.5098 7.65521 4.94608 7.55038 4.45588C7.44943 3.96569 7.29994 3.55392 7.10192 3.22059C6.9039 2.88725 6.66123 2.6348 6.37391 2.46324C6.09047 2.29167 5.7682 2.20588 5.40711 2.20588C5.05766 2.20588 4.74122 2.29167 4.45778 2.46324C4.17822 2.6348 3.93749 2.88725 3.73559 3.22059C3.53757 3.55392 3.3842 3.96569 3.27548 4.45588C3.16676 4.94608 3.11241 5.5098 3.11241 6.14706V6.83824C3.11241 7.48039 3.16676 8.04902 3.27548 8.54412C3.3842 9.03431 3.53951 9.44853 3.74141 9.78677C3.94719 10.1201 4.18987 10.3725 4.46942 10.5441C4.75286 10.7157 5.06931 10.8015 5.41875 10.8015C5.78373 10.8015 6.10794 10.7157 6.39138 10.5441C6.67482 10.3725 6.91361 10.1201 7.10775 9.78677C7.30577 9.44853 7.45525 9.03431 7.5562 8.54412C7.65715 8.04902 7.70763 7.48039 7.70763 6.83824Z" fill="black"/>
<path d="M11.4176 5.59559V11.8529H10.3401V3.89706H11.3593L11.4176 5.59559ZM11.1613 7.57353L10.7129 7.55147C10.7168 7.00735 10.7808 6.5049 10.9051 6.04412C11.0293 5.57843 11.204 5.17402 11.4292 4.83088C11.6544 4.48775 11.9223 4.22304 12.233 4.03676C12.5475 3.84559 12.895 3.75 13.2755 3.75C13.5861 3.75 13.8657 3.80392 14.1142 3.91176C14.3626 4.01471 14.5743 4.18137 14.749 4.41176C14.9276 4.64216 15.0635 4.94118 15.1567 5.30882C15.2499 5.67157 15.2964 6.1152 15.2964 6.63971V11.8529H14.2132V6.625C14.2132 6.20833 14.1646 5.875 14.0676 5.625C13.9705 5.3701 13.8288 5.18627 13.6424 5.07353C13.456 4.95588 13.2269 4.89706 12.9552 4.89706C12.6872 4.89706 12.4426 4.96814 12.2213 5.11029C12.0039 5.25245 11.8156 5.44853 11.6564 5.69853C11.5011 5.94853 11.3788 6.23529 11.2895 6.55882C11.204 6.87745 11.1613 7.21569 11.1613 7.57353Z" fill="black"/>
<path d="M19.548 12C19.1093 12 18.7113 11.9069 18.3541 11.7206C18.0008 11.5294 17.696 11.2623 17.4397 10.9191C17.1873 10.576 16.9932 10.1691 16.8573 9.69853C16.7214 9.22794 16.6535 8.71324 16.6535 8.15441V7.84559C16.6535 7.19853 16.7292 6.62255 16.8806 6.11765C17.032 5.60784 17.2378 5.17647 17.498 4.82353C17.7581 4.47059 18.0532 4.20343 18.3832 4.02206C18.7133 3.84069 19.0549 3.75 19.4083 3.75C19.8587 3.75 20.2469 3.84804 20.5731 4.04412C20.9031 4.2402 21.173 4.51471 21.3826 4.86765C21.5923 5.21569 21.7476 5.62745 21.8486 6.10294C21.9495 6.57353 22 7.08824 22 7.64706V8.25735H17.2941V7.14706H20.9225V7.04412C20.907 6.69118 20.8488 6.34804 20.7478 6.01471C20.6507 5.68137 20.4954 5.40686 20.2819 5.19118C20.0683 4.97549 19.7771 4.86765 19.4083 4.86765C19.1637 4.86765 18.9385 4.93382 18.7327 5.06618C18.5269 5.19363 18.3502 5.3848 18.2027 5.63971C18.0551 5.89461 17.9406 6.20588 17.8591 6.57353C17.7775 6.94118 17.7368 7.3652 17.7368 7.84559V8.15441C17.7368 8.53186 17.7775 8.88726 17.8591 9.22059C17.9445 9.54902 18.0668 9.83824 18.226 10.0882C18.3891 10.3382 18.5851 10.5343 18.8142 10.6765C19.0472 10.8186 19.3112 10.8897 19.6063 10.8897C19.9868 10.8897 20.3091 10.7917 20.5731 10.5956C20.8371 10.3995 21.0681 10.1373 21.2662 9.80882L21.9185 10.4632C21.7826 10.723 21.6098 10.9706 21.4001 11.2059C21.1904 11.4412 20.9322 11.6324 20.6255 11.7794C20.3227 11.9265 19.9635 12 19.548 12Z" fill="black"/>
<path d="M9.04534 20.2638C9.04534 20.0261 8.9828 19.8063 8.85774 19.6043C8.73962 19.3963 8.49297 19.2092 8.11777 19.0428C7.74952 18.8705 7.19368 18.7219 6.45023 18.5971C5.82491 18.4843 5.25864 18.3506 4.75143 18.1961C4.25117 18.0416 3.82387 17.8544 3.46952 17.6346C3.12211 17.4147 2.85461 17.1563 2.66701 16.8592C2.47942 16.5621 2.38562 16.2145 2.38562 15.8164C2.38562 15.4361 2.48289 15.0766 2.67744 14.738C2.87893 14.3993 3.16033 14.0992 3.52163 13.8378C3.88987 13.5764 4.33108 13.3714 4.84523 13.2228C5.35939 13.0743 5.9326 13 6.56488 13C7.46813 13 8.23936 13.1367 8.87858 13.41C9.5178 13.6833 10.0076 14.0487 10.3481 14.5062C10.6886 14.9578 10.8588 15.4599 10.8588 16.0125H8.93069C8.93069 15.7451 8.83689 15.4866 8.6493 15.2371C8.46865 14.9816 8.20115 14.7706 7.8468 14.6043C7.49939 14.4379 7.07209 14.3547 6.56488 14.3547C6.02988 14.3547 5.59562 14.426 5.26212 14.5686C4.93556 14.7053 4.69585 14.8806 4.54299 15.0945C4.39708 15.3084 4.32413 15.5342 4.32413 15.7718C4.32413 15.9501 4.35887 16.1105 4.42835 16.2531C4.50478 16.3898 4.63679 16.5175 4.82439 16.6364C5.01199 16.7493 5.27601 16.8562 5.61647 16.9572C5.95692 17.0582 6.39118 17.1592 6.91923 17.2602C7.84332 17.4385 8.60413 17.6524 9.20167 17.902C9.7992 18.1515 10.2439 18.4575 10.5357 18.82C10.8275 19.1824 10.9734 19.6221 10.9734 20.139C10.9734 20.5609 10.8692 20.9471 10.6608 21.2977C10.4593 21.6482 10.164 21.9513 9.77488 22.2068C9.39274 22.4563 8.93417 22.6524 8.39917 22.795C7.87111 22.9317 7.27705 23 6.61699 23C5.62341 23 4.7827 22.8485 4.09484 22.5455C3.40698 22.2424 2.88588 21.8503 2.53153 21.369C2.17718 20.8877 2 20.3797 2 19.8449H3.93851C3.9663 20.2965 4.11916 20.656 4.39708 20.9234C4.675 21.1848 5.01546 21.372 5.41845 21.4848C5.82143 21.5918 6.22095 21.6453 6.61699 21.6453C7.14504 21.6453 7.58624 21.5859 7.94059 21.467C8.30189 21.3482 8.57634 21.1848 8.76394 20.9768C8.95154 20.7689 9.04534 20.5312 9.04534 20.2638Z" fill="black"/>
<path d="M20.0719 20.2638C20.0719 20.0261 20.0094 19.8063 19.8843 19.6043C19.7662 19.3963 19.5195 19.2092 19.1443 19.0428C18.7761 18.8705 18.2203 18.7219 17.4768 18.5971C16.8515 18.4843 16.2852 18.3506 15.778 18.1961C15.2777 18.0416 14.8504 17.8544 14.4961 17.6346C14.1487 17.4147 13.8812 17.1563 13.6936 16.8592C13.506 16.5621 13.4122 16.2145 13.4122 15.8164C13.4122 15.4361 13.5095 15.0766 13.704 14.738C13.9055 14.3993 14.1869 14.0992 14.5482 13.8378C14.9164 13.5764 15.3577 13.3714 15.8718 13.2228C16.386 13.0743 16.9592 13 17.5915 13C18.4947 13 19.2659 13.1367 19.9052 13.41C20.5444 13.6833 21.0342 14.0487 21.3747 14.5062C21.7151 14.9578 21.8854 15.4599 21.8854 16.0125H19.9573C19.9573 15.7451 19.8635 15.4866 19.6759 15.2371C19.4952 14.9816 19.2277 14.7706 18.8734 14.6043C18.526 14.4379 18.0987 14.3547 17.5915 14.3547C17.0565 14.3547 16.6222 14.426 16.2887 14.5686C15.9621 14.7053 15.7224 14.8806 15.5696 15.0945C15.4237 15.3084 15.3507 15.5342 15.3507 15.7718C15.3507 15.9501 15.3854 16.1105 15.4549 16.2531C15.5314 16.3898 15.6634 16.5175 15.851 16.6364C16.0386 16.7493 16.3026 16.8562 16.643 16.9572C16.9835 17.0582 17.4178 17.1592 17.9458 17.2602C18.8699 17.4385 19.6307 17.6524 20.2282 17.902C20.8258 18.1515 21.2705 18.4575 21.5623 18.82C21.8541 19.1824 22 19.6221 22 20.139C22 20.5609 21.8958 20.9471 21.6873 21.2977C21.4858 21.6482 21.1906 21.9513 20.8015 22.2068C20.4193 22.4563 19.9607 22.6524 19.4257 22.795C18.8977 22.9317 18.3036 23 17.6436 23C16.65 23 15.8093 22.8485 15.1214 22.5455C14.4336 22.2424 13.9125 21.8503 13.5581 21.369C13.2038 20.8877 13.0266 20.3797 13.0266 19.8449H14.9651C14.9929 20.2965 15.1457 20.656 15.4237 20.9234C15.7016 21.1848 16.042 21.372 16.445 21.4848C16.848 21.5918 17.2475 21.6453 17.6436 21.6453C18.1716 21.6453 18.6128 21.5859 18.9672 21.467C19.3285 21.3482 19.6029 21.1848 19.7905 20.9768C19.9781 20.7689 20.0719 20.5312 20.0719 20.2638Z" fill="black"/>
</svg>
