<?xml version="1.0" standalone="no"?>
<!DOCTYPE svg PUBLIC "-//W3C//DTD SVG 20010904//EN"
 "http://www.w3.org/TR/2001/REC-SVG-20010904/DTD/svg10.dtd">
<svg version="1.0" xmlns="http://www.w3.org/2000/svg"
 width="700.000000pt" height="700.000000pt" viewBox="0 0 700.000000 700.000000"
 preserveAspectRatio="xMidYMid meet">
<metadata>
Created by potrace 1.14, written by Peter Selinger 2001-2017
</metadata>
<g transform="translate(0.000000,700.000000) scale(0.100000,-0.100000)"
fill="#000000" stroke="none">
<path d="M1410 6690 c-165 -34 -287 -100 -414 -224 -231 -225 -369 -581 -405
-1041 -8 -112 -7 -618 2 -680 3 -22 9 -65 12 -95 3 -30 8 -66 10 -80 3 -14 7
-41 10 -60 3 -19 8 -43 11 -52 3 -9 7 -26 9 -39 27 -140 118 -363 198 -488
104 -160 251 -294 392 -356 125 -56 192 -69 345 -69 122 -1 158 3 225 22 280
80 495 295 625 622 26 66 69 195 75 230 3 14 7 36 10 50 33 167 33 171 41 255
3 39 7 86 9 105 5 42 6 581 1 630 -47 487 -170 812 -391 1036 -81 83 -241 190
-295 199 -3 0 -9 3 -15 6 -5 4 -44 14 -85 24 -106 25 -265 27 -370 5z m281
-345 c23 -4 61 -14 83 -23 262 -104 420 -396 463 -855 10 -105 10 -627 0 -732
-38 -413 -176 -700 -396 -824 -95 -53 -281 -75 -391 -46 -169 45 -315 177
-403 365 -57 122 -106 314 -123 475 -4 39 -8 84 -10 100 -4 39 -4 559 0 605 6
66 17 155 21 180 3 14 7 39 10 55 36 212 120 404 236 539 32 37 134 110 184
131 89 37 204 48 326 30z"/>
<path d="M3755 5894 c-108 -20 -223 -83 -310 -170 -40 -40 -81 -86 -91 -103
-10 -17 -22 -31 -26 -31 -4 0 -8 33 -9 73 -2 149 -6 189 -16 195 -9 6 -202 8
-273 3 -13 -1 -15 -135 -14 -1148 1 -632 2 -1153 3 -1160 1 -8 44 -11 156 -11
l155 1 0 828 0 829 28 58 c64 132 148 223 251 274 58 28 78 32 159 35 206 6
317 -89 364 -311 7 -33 12 -339 13 -876 2 -454 3 -828 4 -831 0 -3 71 -6 156
-7 l155 0 0 31 c5 362 -2 1619 -10 1694 -22 231 -89 396 -206 508 -108 104
-309 153 -489 119z"/>
<path d="M5545 5893 c-41 -8 -109 -33 -165 -60 -147 -74 -282 -217 -373 -399
-67 -133 -127 -362 -142 -539 -9 -111 -9 -345 -1 -435 40 -419 223 -742 501
-883 111 -56 188 -72 345 -71 132 0 152 2 224 27 159 56 281 150 387 300 82
116 83 105 -20 208 -48 49 -92 89 -97 89 -5 0 -24 -22 -42 -49 -42 -62 -119
-141 -175 -179 -89 -62 -229 -90 -351 -71 -113 18 -232 100 -308 211 -90 134
-134 275 -153 500 l-3 48 621 2 622 3 -1 155 c-1 147 -10 326 -18 339 -2 3 -7
29 -10 56 -10 77 -52 227 -87 311 -93 223 -267 384 -467 430 -90 21 -201 24
-287 7z m276 -345 c145 -66 238 -241 273 -514 7 -50 10 -98 7 -105 -5 -12 -81
-14 -461 -14 l-455 0 3 39 c2 22 6 49 8 60 2 12 7 37 10 56 3 19 19 76 35 125
87 261 231 386 439 381 67 -2 97 -8 141 -28z"/>
<path d="M1768 3205 c-1 -2 -34 -6 -73 -9 -38 -3 -81 -8 -95 -11 -14 -3 -50
-10 -80 -15 -168 -33 -382 -126 -508 -219 -211 -158 -316 -351 -314 -576 1
-86 3 -96 25 -171 67 -226 305 -405 696 -520 135 -40 455 -112 586 -131 91
-13 296 -77 384 -119 173 -84 244 -183 244 -339 0 -101 -23 -156 -95 -229 -75
-75 -224 -140 -369 -162 -67 -11 -366 -12 -434 -2 -243 35 -423 132 -517 278
-34 53 -65 150 -67 208 l-1 22 -285 0 -285 0 5 -33 c2 -17 7 -52 10 -77 37
-306 335 -597 744 -729 70 -23 241 -57 336 -67 113 -12 422 -11 527 2 400 51
718 207 875 431 100 142 140 319 113 501 -45 300 -285 492 -802 641 -97 28
-290 73 -368 86 -19 3 -51 10 -70 15 -19 5 -51 12 -70 15 -65 11 -234 56 -310
82 -152 52 -252 123 -287 202 -10 23 -16 67 -16 121 -1 74 3 92 27 140 31 64
55 93 111 136 87 67 192 106 351 129 64 10 274 6 339 -6 89 -16 191 -54 266
-99 124 -74 226 -212 237 -321 l5 -49 283 0 283 0 -5 54 c-17 237 -161 461
-390 608 -154 99 -385 177 -599 203 -55 7 -401 15 -407 10z"/>
<path d="M4885 3193 c-181 -25 -284 -50 -380 -93 -22 -9 -50 -21 -63 -25 -31
-9 -158 -81 -202 -114 -73 -54 -107 -87 -189 -181 -78 -89 -145 -286 -140
-410 15 -354 292 -586 864 -724 114 -27 189 -44 225 -51 14 -3 48 -9 75 -15
28 -5 66 -12 85 -15 19 -4 73 -15 120 -25 307 -70 469 -156 534 -287 62 -123
50 -255 -33 -361 -62 -79 -250 -169 -390 -187 -30 -4 -63 -9 -75 -11 -28 -6
-285 -6 -316 0 -14 3 -56 10 -95 16 -92 14 -221 59 -292 101 -31 19 -84 62
-118 96 -70 69 -113 157 -122 251 l-6 52 -285 0 -284 0 6 -70 c38 -397 426
-725 971 -820 182 -32 490 -34 705 -6 289 39 571 166 735 332 139 142 204 307
199 505 -8 335 -238 555 -739 707 -94 29 -228 65 -285 76 -14 3 -34 7 -45 10
-11 2 -67 13 -125 25 -371 73 -560 138 -660 228 -84 74 -106 216 -53 338 46
106 148 185 303 236 159 52 442 54 600 5 216 -68 384 -233 406 -397 l7 -49
278 0 279 0 1 28 c1 15 0 32 -1 37 -1 6 -4 30 -7 55 -16 131 -122 321 -240
429 -159 147 -407 265 -618 296 -58 8 -96 14 -130 21 -67 13 -402 11 -500 -3z"/>
</g>
</svg>
