<?xml version="1.0" standalone="no"?>
<!DOCTYPE svg PUBLIC "-//W3C//DTD SVG 20010904//EN"
 "http://www.w3.org/TR/2001/REC-SVG-20010904/DTD/svg10.dtd">
<svg version="1.0" xmlns="http://www.w3.org/2000/svg"
 width="700.000000pt" height="700.000000pt" viewBox="0 0 700.000000 700.000000"
 preserveAspectRatio="xMidYMid meet">
<metadata>
Created by potrace 1.14, written by Peter Selinger 2001-2017
</metadata>
<g transform="translate(0.000000,700.000000) scale(0.100000,-0.100000)"
fill="#000000" stroke="none">
<path d="M1447 6700 c-418 -66 -727 -453 -827 -1035 -57 -333 -50 -873 16
-1200 91 -453 340 -798 657 -913 301 -109 629 -42 857 174 235 224 370 558
411 1011 16 188 7 734 -15 873 -95 593 -360 970 -756 1071 -87 23 -259 32
-343 19z m308 -372 c242 -81 403 -332 464 -723 43 -274 41 -771 -5 -1037 -33
-196 -106 -382 -195 -502 -195 -260 -579 -290 -811 -64 -140 138 -223 324
-274 618 -22 125 -31 667 -15 837 51 522 250 837 567 893 69 12 198 2 269 -22z"/>
<path d="M3784 5900 c-156 -23 -315 -123 -414 -259 l-45 -62 -6 133 c-4 73 -7
136 -8 141 0 4 -66 7 -146 7 l-145 0 0 -1160 0 -1160 155 0 155 0 0 830 0 831
38 76 c51 105 152 212 240 255 62 31 73 33 172 33 121 0 177 -19 243 -83 48
-46 72 -93 99 -190 21 -75 22 -98 26 -914 l3 -838 155 0 154 0 0 828 c0 501
-4 862 -10 917 -37 323 -166 522 -379 589 -85 26 -210 38 -287 26z"/>
<path d="M5552 5896 c-323 -61 -572 -373 -665 -831 -19 -98 -22 -141 -22 -380
0 -222 3 -288 19 -370 95 -508 405 -815 821 -815 203 0 381 74 518 214 54 56
167 212 167 232 0 5 -42 51 -93 102 l-93 93 -36 -53 c-160 -242 -430 -329
-659 -213 -181 92 -308 342 -332 653 l-5 62 626 0 625 0 -7 198 c-13 383 -71
625 -195 815 -149 227 -411 341 -669 293z m271 -349 c99 -45 180 -151 226
-297 25 -78 51 -226 51 -286 l0 -44 -458 0 -459 0 9 61 c41 304 173 520 353
579 83 28 201 22 278 -13z"/>
<path d="M1715 3199 c-482 -45 -861 -279 -983 -607 -48 -130 -41 -327 17 -456
55 -122 193 -249 363 -333 189 -94 381 -150 797 -233 139 -27 294 -64 344 -80
267 -90 381 -208 381 -395 0 -128 -53 -217 -173 -289 -195 -119 -535 -151
-846 -80 -110 25 -244 94 -319 165 -77 72 -119 147 -137 249 l-12 70 -284 0
-284 0 7 -52 c41 -353 304 -635 721 -774 143 -48 268 -71 461 -86 425 -31 828
55 1097 235 33 22 95 75 137 119 201 204 254 502 134 753 -62 133 -209 261
-393 346 -180 84 -391 146 -740 218 -405 84 -571 143 -661 233 -51 51 -71 92
-79 168 -15 148 79 291 242 366 126 58 186 68 400 69 216 0 287 -14 420 -83
139 -72 262 -226 273 -343 l5 -49 284 0 284 0 -6 58 c-38 336 -271 594 -658
731 -215 76 -514 106 -792 80z"/>
<path d="M4933 3200 c-254 -27 -480 -101 -660 -216 -121 -77 -256 -230 -308
-349 -28 -62 -55 -186 -55 -250 0 -194 105 -380 285 -504 189 -131 428 -211
935 -311 430 -86 600 -164 681 -312 32 -60 34 -68 34 -163 0 -84 -4 -107 -22
-141 -32 -59 -101 -125 -171 -162 -149 -80 -301 -107 -541 -99 -255 9 -414 54
-553 157 -109 80 -173 186 -185 307 l-6 53 -283 0 -284 0 0 -30 c0 -59 32
-186 65 -256 91 -198 238 -343 464 -458 222 -113 415 -158 734 -172 401 -18
799 79 1037 253 229 166 344 412 310 663 -53 385 -362 588 -1150 750 -518 108
-684 174 -753 304 -18 34 -22 57 -22 136 0 89 2 99 34 158 19 35 52 79 74 97
55 48 160 100 252 127 72 21 101 23 280 23 200 0 200 0 294 -33 52 -18 122
-49 155 -69 125 -76 227 -212 242 -324 l7 -49 280 0 280 0 -6 73 c-24 316
-289 598 -683 726 -191 62 -539 95 -761 71z"/>
</g>
</svg>
