<?xml version="1.0" encoding="utf-8"?>
<svg width="48px" height="48px" viewBox="0 0 48 48" version="1.1" xmlns:xlink="http://www.w3.org/1999/xlink" xmlns="http://www.w3.org/2000/svg">
  <defs>
    <path d="M0 0L48 0L48 48L0 48L0 0Z" id="path_1" />
    <clipPath id="mask_1">
      <use xlink:href="#path_1" />
    </clipPath>
  </defs>
  <g id="Share-icon">
    <path d="M0 0L48 0L48 48L0 48L0 0Z" id="Background" fill="none" fill-rule="evenodd" stroke="none" />
    <g clip-path="url(#mask_1)">
      <path d="M38.1 31.2L19.4 24L38.1 16.8C39.6 16.2 40.4 14.5 39.8 12.9C39.2 11.4 37.5 10.6 35.9 11.2L9.9 21.2C8.8 21.6 8 22.8 8 24C8 25.2 8.8 26.4 9.9 26.8L35.9 36.8C36.3 36.9 36.6 37 37 37C38.2 37 39.3 36.3 39.8 35.1C40.4 33.5 39.6 31.8 38.1 31.2L38.1 31.2Z" id="Shape" fill="#1976D2" stroke="none" />
      <path d="M11 17C7.13401 17 4.00001 20.134 4 24C3.99999 27.866 7.13398 31 11 31C14.866 31 18 27.866 18 24C18 20.134 14.866 17 11 17L11 17ZM37 7C33.134 7 30 10.134 30 14C30 17.866 33.134 21 37 21C40.8659 21 44 17.866 44 14C44 10.1341 40.866 7.00003 37 7L37 7ZM37 27C33.134 27 30 30.134 30 34C30 37.866 33.134 41 37 41C40.8659 41 44 37.866 44 34C44 30.1341 40.866 27 37 27L37 27Z" id="Shape" fill="#1E88E5" fill-rule="evenodd" stroke="none" />
    </g>
  </g>
</svg>